<?xml version="1.0" encoding="UTF-8"?>
<!DOCTYPE svg PUBLIC "-//W3C//DTD SVG 1.1//EN" "http://www.w3.org/Graphics/SVG/1.1/DTD/svg11.dtd">
<!-- Creator: CorelDRAW -->
<svg xmlns="http://www.w3.org/2000/svg" xml:space="preserve" width="109.7mm" height="109.7mm" version="1.1" style="shape-rendering:geometricPrecision; text-rendering:geometricPrecision; image-rendering:optimizeQuality; fill-rule:evenodd; clip-rule:evenodd"
viewBox="0 0 10970 10970"
 xmlns:xlink="http://www.w3.org/1999/xlink"
 xmlns:xodm="http://www.corel.com/coreldraw/odm/2003">
 <defs>
  <style type="text/css">
   <![CDATA[
    .str0 {stroke:#373435;stroke-width:20;stroke-miterlimit:22.9256}
    .fil2 {fill:none}
    .fil0 {fill:#FEFEFE}
    .fil1 {fill:blueviolet}
   ]]>
  </style>
   <clipPath id="id0">
    <path d="M5483.25 1.91c3029.19,0 5484.84,2455.65 5484.84,5484.84 0,3029.19 -2455.65,5484.84 -5484.84,5484.84 -3029.19,0 -5484.84,-2455.65 -5484.84,-5484.84 0,-3029.19 2455.65,-5484.84 5484.84,-5484.84z"/>
   </clipPath>
 </defs>
 <g id="Camada_x0020_1">
  <metadata id="CorelCorpID_0Corel-Layer"/>
  <g>
  </g>
  <g style="clip-path:url(#id0)">
   <g id="_3119758046384">
    <rect class="fil0 str0" x="257.18" y="593.31" width="9840.87" height="9660.97"/>
    <g>
     <path class="fil1" d="M8634.46 9260.43l-2290.54 0c-218.04,0 -364.41,-117.68 -364.41,-338.38l0 -2394.66c0,-152.08 134.24,-286.31 286.32,-286.31l2394.66 0c220.7,0 338.38,146.36 338.38,364.4l0 2290.54c0,227.74 -136.68,364.41 -364.41,364.41zm-3672 -10489.66l459.65 0c472.01,15.96 942.8,81.01 1401.12,197.43 1129.95,287.02 1798.79,710.04 2655.26,1379.23 219.03,171.15 424.29,382.93 607.28,590.05 262.63,297.24 296.47,326.13 537.92,659.41 679.48,937.94 1212.32,2328.37 1212.32,3603.03 0,1254.86 -121.83,1939.56 -625.03,3071.07 -146,328.31 -536.38,966.11 -774.49,1255.76 -578.67,703.95 -1121.25,1207.32 -1917.13,1674.86 -170.33,100.05 -343.7,200.07 -528.11,278.79 -397.53,169.72 -728.83,309.89 -1188.91,424.88 -742.22,185.52 -1093.95,192.13 -1828.7,192.29l-35.28 0c-916.97,0 -1986.79,-320.63 -2603.29,-624.31 -680.54,-335.21 -914.46,-519.54 -1468.33,-952.35 -238.62,-186.46 -420.71,-398.31 -606.57,-590.76l-282.61 -316.04c-35.54,-45.24 -58.71,-80.73 -88.53,-119.71 -35.7,-46.67 -55.38,-63.71 -93.57,-114.66 -201.66,-269.03 -538.9,-822.01 -669.07,-1126.93 -499.15,-1169.15 -617.18,-1756.49 -617.18,-3052.89 0,-916.97 320.63,-1986.79 624.31,-2603.29l437.77 -785.59c150.91,-241.31 340.98,-460.58 514.58,-682.74 74.78,-95.69 110.46,-120.57 187.12,-203.31 301.08,-324.98 484.84,-497.84 835.52,-778.28 1065.18,-851.82 2448.83,-1329.02 3853.95,-1375.94zm-3329.78 7938.83c0,-207.09 133.58,-312.35 338.38,-312.35 239.77,0 815.42,759.85 1041.16,911.01 69.5,-103.81 544.61,-557.38 696.26,-709.29 158.8,-159.09 147.83,-201.72 370.92,-201.72 182.34,0 260.29,155.5 260.29,338.37 0,143.69 -276.88,367.99 -422.97,514.07 -123.89,123.89 -364.1,392.03 -488.04,475.03 224.73,335.6 911.01,720.9 911.01,1119.25 0,134.05 -149.86,260.28 -260.29,260.28 -350.72,0 -743.62,-676.91 -1093.22,-911.01 -256.93,172.05 -810.91,911.01 -1015.12,911.01 -193.61,0 -338.38,-123.28 -338.38,-312.34 0,-256.84 713.48,-746.19 911.02,-1041.16 -150.67,-225 -911.02,-802.41 -911.02,-1041.15zm7079.86 -2186.43l-2446.71 0c-378.86,0 -378.86,-598.67 0,-598.67l2446.71 0c166.51,0 272.86,144.56 278.43,289.16 5.85,152.07 -118.12,309.51 -278.43,309.51zm-7366.17 -1275.42c0,-337.3 392.03,-286.52 520.56,-286.34 1026.13,1.54 833.62,189.43 832.93,-806.88 -0.09,-132.68 -17.98,-298.36 28.64,-387.83 103.82,-199.22 375.52,-203.85 512.11,-22.77 131.17,173.89 8.56,1014.18 62.24,1161.12 34.61,94.74 66,57.29 334.02,56.41 558.83,-1.82 989.14,-108.4 989.14,312.32 0,152.08 -134.24,286.31 -286.32,286.31l-1041.16 0 0 1041.16c0,377.81 -598.66,375.71 -598.66,26.03l0 -1067.19 -1015.13 0c-229.63,0 -338.37,-189.04 -338.37,-312.34zm7288.09 -650.72l-2316.58 0c-447.81,0 -461.02,-624.7 26.04,-624.7l2238.48 0c108.27,0 227.38,24 292.64,71.76 216.92,158.75 135.81,552.94 -240.58,552.94z"/>
     <path class="fil1" d="M6578.17 6917.83l0 1717.9 1796 0 0 -1795.99 -1717.9 0c-59.98,0 -78.1,18.11 -78.1,78.09z"/>
    </g>
   </g>
  </g>
  <path class="fil2" d="M5483.25 1.91c3029.19,0 5484.84,2455.65 5484.84,5484.84 0,3029.19 -2455.65,5484.84 -5484.84,5484.84 -3029.19,0 -5484.84,-2455.65 -5484.84,-5484.84 0,-3029.19 2455.65,-5484.84 5484.84,-5484.84z"/>
 </g>
</svg>
